<?xml version="1.0" encoding="UTF-8" standalone="no"?>
<svg xmlns="http://www.w3.org/2000/svg" viewBox="0 0 192 206" fill="white">
<path d="M 124,168 124,174 125,175 129,175 129,174 126,174 125,173 126,172 128,172 129,171 126,171 125,170 126,169 129,169 129,168 Z" />
<path d="M 111,168 111,175 115,175 115,174 113,174 112,173 113,172 115,172 115,171 113,171 112,170 113,169 115,169 115,168 Z" />
<path d="M 97,168 97,175 98,175 98,173 99,172 101,172 101,171 99,171 98,170 99,169 102,169 102,168 Z" />
<path d="M 84,168 84,175 85,174 85,173 86,172 88,172 88,171 86,171 85,170 86,169 88,169 88,168 Z" />
<path d="M 69,168 68,169 68,173 70,175 73,175 75,173 75,170 73,168 Z" />
<path d="M 55,168 54,169 54,170 53,171 53,172 54,173 54,174 55,174 56,175 58,175 59,174 60,174 59,173 58,174 56,174 55,173 55,172 54,171 56,169 59,169 59,168 Z" />
<path d="M 150,144 150,145 149,146 149,147 148,148 148,149 147,150 147,151 146,152 146,153 145,154 145,155 144,156 144,157 147,157 147,155 148,154 154,154 156,156 156,157 158,157 158,155 157,154 157,153 156,152 156,151 155,150 155,149 154,148 154,146 153,145 153,144 Z" />
<path d="M 112,144 112,157 114,157 114,144 Z" />
<path d="M 90,144 90,157 100,157 102,155 102,152 100,150 102,148 102,147 101,146 101,145 100,144 Z" />
<path d="M 73,144 72,145 72,146 71,147 71,149 70,150 70,151 69,152 69,153 68,154 68,155 67,156 67,157 69,157 70,156 70,155 71,154 77,154 78,155 78,156 79,157 81,157 81,155 80,154 80,153 79,152 79,151 78,150 78,149 77,148 77,147 76,146 76,144 Z" />
<path d="M 48,144 48,157 50,157 50,154 51,153 53,153 57,157 59,157 58,156 58,155 56,153 59,150 59,147 58,146 58,145 57,145 56,144 Z" />
<path d="M 30,144 30,145 29,146 29,147 28,148 28,150 26,152 26,154 25,155 25,157 27,157 27,156 29,154 35,154 36,155 36,157 39,157 38,156 38,155 37,154 37,152 36,151 36,150 35,149 35,148 34,147 34,146 33,145 33,144 Z" />
<path d="M 131,143 130,144 128,144 127,145 126,145 126,146 125,147 125,148 124,149 124,152 125,153 125,154 128,157 134,157 135,156 136,156 136,154 135,154 134,155 129,155 127,153 127,148 129,146 130,146 131,145 132,145 133,146 134,146 135,147 136,146 136,145 135,144 133,144 132,143 Z" />
<path d="M 86,24 85,25 83,25 81,27 80,27 77,30 77,31 75,33 75,35 74,36 74,46 75,47 75,49 77,51 77,52 85,60 86,60 89,63 90,63 95,68 95,69 96,70 96,71 97,72 97,77 96,78 96,80 95,81 95,82 89,88 91,88 92,87 94,87 96,85 97,85 100,82 100,81 101,80 101,79 102,78 102,76 103,75 103,74 104,73 105,73 106,74 109,74 110,75 112,75 113,76 114,76 115,77 116,77 117,78 118,78 120,80 120,81 121,82 121,85 116,90 115,90 114,91 112,91 111,92 109,92 108,93 106,93 105,94 98,94 97,95 82,95 81,94 75,94 74,93 71,93 70,92 68,92 67,91 66,91 65,90 64,90 63,89 62,89 59,86 59,85 58,84 58,83 59,82 59,81 63,77 64,77 65,76 66,76 67,75 69,75 70,74 74,74 75,73 79,73 80,72 83,72 86,75 86,76 87,77 87,81 86,82 86,83 84,85 84,86 85,86 86,85 87,85 91,81 91,74 90,73 90,72 89,71 89,70 84,65 83,65 81,63 80,63 79,62 78,62 76,60 75,60 73,58 73,60 74,61 74,62 77,65 77,66 76,67 75,67 74,68 71,68 70,69 67,69 66,70 64,70 63,71 62,71 61,72 60,72 59,73 58,73 57,74 56,74 53,77 53,78 52,79 52,80 51,81 51,96 52,97 52,102 53,103 53,105 54,106 54,108 55,109 55,110 56,111 56,112 58,114 58,115 60,117 60,118 64,122 65,122 68,125 69,125 71,127 73,127 75,129 77,129 78,130 81,130 82,131 91,131 88,131 87,130 85,130 84,129 82,129 81,128 80,128 78,126 77,126 76,125 75,125 69,119 69,118 67,116 67,115 66,114 66,113 67,112 68,113 69,113 73,117 74,117 75,118 76,118 77,119 78,119 79,120 80,120 81,121 83,121 84,122 87,122 88,123 108,123 109,122 112,122 113,121 115,121 116,120 118,120 119,119 121,119 122,118 123,118 124,117 125,117 126,116 127,116 129,114 130,114 132,112 133,112 140,105 140,104 142,102 142,101 143,100 143,99 144,98 144,88 142,86 142,85 141,84 140,84 138,82 137,82 136,81 131,81 130,80 129,81 128,80 128,79 123,74 122,74 120,72 119,72 118,71 116,71 115,70 113,70 112,69 109,69 108,68 105,68 104,67 102,67 101,66 101,65 98,62 98,61 97,60 96,60 92,56 91,56 88,53 87,53 81,47 81,46 79,44 79,40 78,39 79,38 79,34 81,32 81,31 87,25 89,25 90,24 91,24 Z" />
</svg>